<svg width="45" height="31" viewBox="0 0 45 31" fill="none" xmlns="http://www.w3.org/2000/svg">
<path d="M31.8271 26.0616C31.8271 27.8815 33.2969 29.3981 35.1435 29.3981C36.9525 29.3981 38.4599 27.9194 38.4599 26.0616C38.4599 24.2038 36.9902 22.7251 35.1435 22.7251C33.2969 22.763 31.8271 24.2417 31.8271 26.0616Z" stroke="#B1117F" stroke-width="1.5" stroke-miterlimit="10" stroke-linecap="round" stroke-linejoin="round"/>
<path d="M44 25.0379V22.9526" stroke="#B1117F" stroke-width="1.5" stroke-miterlimit="10" stroke-linecap="round" stroke-linejoin="round"/>
<path d="M42.2289 15.1421V22.7629" stroke="#B1117F" stroke-width="1.5" stroke-miterlimit="10" stroke-linecap="round" stroke-linejoin="round"/>
<path d="M38.196 7.67285L42.2285 15.142" stroke="#B1117F" stroke-width="1.5" stroke-miterlimit="10" stroke-linecap="round" stroke-linejoin="round"/>
<path d="M26.8528 7.67285H38.1963" stroke="#B1117F" stroke-width="1.5" stroke-miterlimit="10" stroke-linecap="round" stroke-linejoin="round"/>
<path d="M6.3136 26.0616C6.3136 27.8815 7.78336 29.3981 9.62998 29.3981C11.4766 29.3981 12.9464 27.9194 12.9464 26.0616C12.9464 24.2038 11.4766 22.7251 9.62998 22.7251C7.78336 22.7251 6.3136 24.2417 6.3136 26.0616Z" stroke="#B1117F" stroke-width="1.5" stroke-miterlimit="10" stroke-linecap="round" stroke-linejoin="round"/>
<path d="M15.4339 22.7631C14.5672 20.3365 12.306 18.6304 9.59258 18.6304C6.91686 18.6304 4.618 20.3744 3.75122 22.7631" stroke="#B1117F" stroke-width="1.5" stroke-miterlimit="10" stroke-linecap="round" stroke-linejoin="round"/>
<path d="M15.8485 22.7632H26.8529" stroke="#B1117F" stroke-width="1.5" stroke-miterlimit="10" stroke-linecap="round" stroke-linejoin="round"/>
<path d="M26.8149 25.1895H31.7895" stroke="#B1117F" stroke-width="1.5" stroke-miterlimit="10" stroke-linecap="round" stroke-linejoin="round"/>
<path d="M26.8528 1V25.1895" stroke="#B1117F" stroke-width="1.5" stroke-miterlimit="10" stroke-linecap="round" stroke-linejoin="round"/>
<path d="M3.75109 22.7632H1" stroke="#B1117F" stroke-width="1.5" stroke-miterlimit="10" stroke-linecap="round" stroke-linejoin="round"/>
<path d="M1 22.763V1" stroke="#B1117F" stroke-width="1.5" stroke-miterlimit="10" stroke-linecap="round" stroke-linejoin="round"/>
<path d="M26.8527 1H1" stroke="#B1117F" stroke-width="1.5" stroke-miterlimit="10" stroke-linecap="round" stroke-linejoin="round"/>
<path d="M43.9999 25.1895H38.8369" stroke="#B1117F" stroke-width="1.5" stroke-miterlimit="10" stroke-linecap="round" stroke-linejoin="round"/>
<path d="M34.3147 15.1421H42.2288" stroke="#B1117F" stroke-width="1.5" stroke-miterlimit="10" stroke-linecap="round" stroke-linejoin="round"/>
<path d="M42.2289 22.9526H43.9625" stroke="#B1117F" stroke-width="1.5" stroke-miterlimit="10" stroke-linecap="round" stroke-linejoin="round"/>
<path d="M15.8485 7.33154L19.1649 10.668" stroke="#B1117F" stroke-width="1.5" stroke-miterlimit="10" stroke-linecap="round" stroke-linejoin="round"/>
<path d="M15.8485 13.9664L19.1649 10.6299" stroke="#B1117F" stroke-width="1.5" stroke-miterlimit="10" stroke-linecap="round" stroke-linejoin="round"/>
<path d="M9.59241 7.33154L12.9088 10.668" stroke="#B1117F" stroke-width="1.5" stroke-miterlimit="10" stroke-linecap="round" stroke-linejoin="round"/>
<path d="M9.59241 13.9664L12.9088 10.6299" stroke="#B1117F" stroke-width="1.5" stroke-miterlimit="10" stroke-linecap="round" stroke-linejoin="round"/>
</svg>
