<?xml version="1.0" encoding="utf-8"?>
<!-- Generator: Adobe Illustrator 26.2.1, SVG Export Plug-In . SVG Version: 6.00 Build 0)  -->
<svg version="1.1" id="Layer_1" xmlns="http://www.w3.org/2000/svg" xmlns:xlink="http://www.w3.org/1999/xlink" x="0px" y="0px"
	 viewBox="0 0 225.1 39.9" style="enable-background:new 0 0 225.1 39.9;" xml:space="preserve">
<style type="text/css">
	.st0{fill:#219638;}
	.st1{fill:#7DB728;}
	.st2{fill:#B1117F;}
</style>
<path class="st0" d="M5.3,32.4c0.3,1.9,1.7,3,3.5,3s3.2-1.1,3.5-3c0.2-1.3-0.6-2.5-1.5-2.6c-1-0.1-1,0.6-2,0.6c0,0-0.1,0-0.1,0
	c-0.1-1.1-0.2-2.9,0.3-4.6c0,0,0,0,0.1-0.1c0,0.2,0,0.3,0,0.5c0.2,1.2,1.5,2,1.5,2s1-1.1,0.8-2.3c-0.2-1.1-1.2-1.8-1.4-1.9
	c0.4-0.5,0.8-1,1.4-1.4c-0.2,3,2,5.5,3.3,6.7c-0.5,0.2-0.9,0-1.4,0.5c-0.7,0.7-0.5,2.1,0.5,2.9c1.5,1.2,3.2,1.2,4.6,0
	c1.4-1.2,1.7-2.9,0.8-4.5c-0.6-1.1-2-1.5-2.8-0.9c-0.8,0.6-0.4,1.1-1.1,1.8c0,0-0.1,0-0.1,0.1c-0.9-0.8-2.3-2.4-2.9-4.2
	c0.1,0.1,0.2,0.3,0.4,0.4c1,0.8,2.4,0.5,2.4,0.5s0.1-1.5-0.9-2.3C13.3,23,12.3,23,11.8,23c0-0.6,0.1-1.3,0.3-1.9
	c0-0.1,0-0.3-0.1-0.3c-0.1,0-0.3,0-0.3,0.1c-0.1,0.4-0.2,0.8-0.3,1.1c-1.2,0.7-2,1.7-2.5,2.8c-0.3,0-0.7,0-1,0.3
	c-0.6,0.4-0.6,1.3-0.6,1.3s0.5,0.1,1.1-0.1c-0.4,1.5-0.3,3-0.2,4c-0.5-0.2-0.7-0.6-1.4-0.5C5.9,30,5.1,31.2,5.3,32.4z M8.3,25.6
	l-0.6,0.7c0,0,0-0.5,0.3-0.8c0.1-0.1,0.2-0.1,0.3-0.2C8.2,25.4,8.3,25.6,8.3,25.6z M13.2,23.6c0,0,0.5,0.2,0.8,0.5
	c0.6,0.6,0.6,1.4,0.6,1.4s-1.1-1.2-1.6-1.7C12.6,23.3,13.2,23.6,13.2,23.6z M17.7,27.7C17.7,27.7,17.7,27.7,17.7,27.7
	C17.7,27.7,17.7,27.7,17.7,27.7c0.8,0.3,1,1.1,0.8,1.3c-0.1,0.1-0.2-0.4-1-0.6c-0.8-0.3-1.1,0.1-1.2-0.1
	C16.2,27.9,16.8,27.4,17.7,27.7z M10.3,30.5c0.1-0.2,0.9-0.3,1.4,0.5c0.4,0.8,0.1,1.5-0.2,1.5c-0.2,0,0.1-0.4-0.3-1.1
	C10.7,30.7,10.2,30.7,10.3,30.5z"/>
<path class="st0" d="M38.9,4.2C32.7,8.9,24.3,19,24.2,19.1c0.1,0.2,0.7,0.7,1.9,1.6c0,0,5.2-4.1,7.7-6.1c1.9-3.6,4.3-7.9,5.6-10.2
	C39.4,4.2,39.1,4,38.9,4.2z"/>
<path class="st1" d="M32.1,26.5c-0.7-0.1-1.7-0.3-2.6-0.4c0,0,1.2,0.1,2.3,0c0.9-0.2,1.6-0.8,1.8-1.7c0.2-0.6,0.4-1.3,0.8-2
	c0.7-1.6,8.8-10,12-13.3c0.2-0.2-0.1-0.5-0.3-0.3c-8,3.2-16.2,9.1-19.9,12c-1.1-0.3-7.2-0.1-5.2,6c0,0,0.1,0.2,0.1,0.2
	c0.1,0.2,0.1,0.2,0.1,0.3c0.7,1,1.4,2.1,2.3,3.3c5.9,8.1,23.1,2.9,23.1,2.9S38,34.7,32.1,26.5z"/>
<path class="st2" d="M24.1,19c-3.8-4.3-7.4-2.3-8.3,1c-0.1,0.2-0.1,0.3-0.3,0.4c0.1-0.1,0.8-0.4,1-0.5l0.3-0.2
	c0.1,0,0.1-0.1,0.2-0.1c0,0,0,0,0.1-0.1c0.2-0.2,0.3-0.4,0.4-0.7v0c0.1-0.2,0.3-0.3,0.6-0.4c0.4,0,0.7,0.1,0.7,0.4
	c0,0.2-0.2,0.4-0.5,0.5l-1.1,0.5l-0.8,0.4c-0.5,0.3-1,0.5-1.5,0.6c-0.4,0.1-2.9,0.7-3.4,0.8c-2.3,0.5-4.8,1.1-4.8,1.1
	s2.5-0.4,4.7-0.7c1.2-0.2,2.5-0.4,3.6-0.5c2.3-0.3,3.7,2,6.1,5.6c0,0-0.1-0.2-0.2-0.4c-2-6.1,4.1-6.3,5.2-6
	C25.6,20.4,24.5,19.5,24.1,19z"/>
<path class="st2" d="M5.3,32.4c0.3,1.9,1.7,3,3.5,3s3.2-1.1,3.5-3c0.2-1.3-0.6-2.5-1.5-2.6c-1-0.1-1,0.6-2,0.6c-1,0-1-0.7-2-0.6
	C5.9,30,5.1,31.2,5.3,32.4z M10.3,30.5c0.1-0.2,0.9-0.3,1.4,0.5c0.4,0.8,0.1,1.5-0.2,1.5c-0.2,0,0.1-0.4-0.3-1.1
	C10.7,30.7,10.2,30.7,10.3,30.5z"/>
<path class="st2" d="M13.3,29.9c-0.7,0.7-0.5,2.1,0.5,2.9c1.5,1.2,3.2,1.2,4.6,0c1.4-1.2,1.7-2.9,0.8-4.5c-0.6-1.1-2-1.5-2.8-0.9
	c-0.8,0.6-0.4,1.1-1.1,1.8C14.5,29.7,14,29.2,13.3,29.9z M17.7,27.7C17.7,27.7,17.7,27.7,17.7,27.7C17.7,27.7,17.7,27.7,17.7,27.7
	c0.8,0.3,1,1.1,0.8,1.3c-0.1,0.1-0.2-0.4-1-0.6c-0.8-0.3-1.1,0.1-1.2-0.1C16.2,27.9,16.8,27.4,17.7,27.7z"/>
<path class="st0" d="M77.6,29.8c-1.6,1.3-3.8,2-6.8,2.1v1.8h-3v-1.8c-2.9-0.2-5.2-0.9-6.8-2.2c-1.6-1.3-2.4-3.1-2.4-5.4
	s0.8-4.1,2.4-5.4c1.6-1.3,3.8-2,6.8-2.2v-1.8h3v1.8c2.9,0.2,5.2,0.9,6.8,2.2c1.6,1.3,2.4,3.1,2.4,5.4C80,26.6,79.2,28.4,77.6,29.8z
	 M63.5,27.9c1,0.8,2.5,1.4,4.5,1.5V19.3c-4,0.3-6,2-6,5C62,25.9,62.4,27,63.5,27.9z M75.4,27.9c1-0.9,1.5-2,1.5-3.6
	c0-1.5-0.5-2.7-1.5-3.5c-1-0.8-2.5-1.3-4.5-1.5v10.1C72.9,29.2,74.4,28.7,75.4,27.9z"/>
<path class="st0" d="M97.1,15.6l-7.5,14c-0.7,1.2-1.4,2.2-2.4,2.8c-0.9,0.6-1.9,0.9-3,0.9c-0.9,0-1.7-0.2-2.6-0.6l0.8-2.5
	c0.7,0.2,1.2,0.3,1.7,0.3c1.1,0,1.9-0.5,2.6-1.6l0.3-0.4l-6.9-12.9h3.4l5.1,10.2l5.3-10.2H97.1z"/>
<path class="st0" d="M115.6,29.5v4.1h-3v-1.4H99.4v1.4h-3l0-4.1h0.8c1.1,0,1.8-0.9,2.3-2.4c0.5-1.6,0.7-3.8,0.8-6.7l0.2-4.8h12.7v14
	L115.6,29.5L115.6,29.5z M102.5,26.3c-0.3,1.5-0.7,2.6-1.4,3.2h8.8V17.6h-6.8l-0.1,3.1C103,22.9,102.8,24.8,102.5,26.3z"/>
<path class="st0" d="M121.2,32.3c-1.4-0.8-2.5-1.8-3.3-3.2c-0.8-1.4-1.2-2.9-1.2-4.6c0-1.7,0.4-3.2,1.2-4.6c0.8-1.4,1.9-2.4,3.3-3.2
	c1.4-0.8,3-1.2,4.7-1.2c1.4,0,2.7,0.3,3.9,0.8c1.2,0.5,2.1,1.2,3,2.1l-2.1,2c-1.2-1.4-2.8-2-4.6-2c-1.2,0-2.3,0.3-3.2,0.8
	c-0.9,0.5-1.7,1.2-2.2,2.2c-0.5,0.9-0.8,2-0.8,3.2c0,1.2,0.3,2.2,0.8,3.2c0.5,0.9,1.3,1.7,2.2,2.2c0.9,0.5,2,0.8,3.2,0.8
	c1.8,0,3.4-0.7,4.6-2.1l2.1,2c-0.8,0.9-1.8,1.7-3,2.1c-1.2,0.5-2.5,0.8-3.9,0.8C124.2,33.4,122.6,33,121.2,32.3z"/>
<path class="st0" d="M135.4,16.1h13.5v2.7h-10.3V23h5.1c2.1,0,3.6,0.5,4.7,1.3c1.1,0.9,1.6,2.1,1.6,3.8c0,1.7-0.6,3-1.8,4
	c-1.2,0.9-2.9,1.4-5.1,1.4h-7.8V16.1z M143,31c1.2,0,2.2-0.2,2.8-0.7c0.6-0.5,1-1.2,1-2.1c0-1.8-1.3-2.7-3.8-2.7h-4.4V31L143,31
	L143,31z"/>
<path class="st0" d="M166,30.8v2.7h-13V16.1h12.6v2.7h-9.4v4.5h8.4V26h-8.4v4.8H166z"/>
<path class="st0" d="M180.1,16.9c1.1,0.5,2,1.2,2.6,2.1c0.6,0.9,0.9,2,0.9,3.3c0,1.2-0.3,2.4-0.9,3.3c-0.6,0.9-1.5,1.7-2.6,2.1
	c-1.1,0.5-2.4,0.8-3.9,0.8h-3.9v5h-3.2V16.1h7.1C177.7,16.1,179,16.4,180.1,16.9z M179.2,24.8c0.7-0.6,1.1-1.4,1.1-2.6
	c0-1.1-0.4-2-1.1-2.6c-0.7-0.6-1.8-0.9-3.2-0.9h-3.8v6.9h3.8C177.4,25.7,178.5,25.4,179.2,24.8z"/>
<path class="st0" d="M197.3,16.9c1.1,0.5,1.9,1.2,2.6,2.1c0.6,0.9,0.9,2,0.9,3.3c0,1.2-0.3,2.4-0.9,3.3c-0.6,0.9-1.5,1.7-2.6,2.1
	c-1.1,0.5-2.4,0.8-3.9,0.8h-3.9v5h-3.2V16.1h7.1C194.9,16.1,196.2,16.4,197.3,16.9z M196.4,24.8c0.7-0.6,1.1-1.4,1.1-2.6
	c0-1.1-0.4-2-1.1-2.6c-0.7-0.6-1.8-0.9-3.2-0.9h-3.8v6.9h3.8C194.6,25.7,195.7,25.4,196.4,24.8z"/>
<path class="st0" d="M203.5,16.1h3.2v12.3l9.3-12.3h3v17.3h-3.2V21.2l-9.3,12.3h-3V16.1z"/>
</svg>
