<?xml version="1.0" encoding="utf-8"?>
<!-- Generator: Adobe Illustrator 26.2.1, SVG Export Plug-In . SVG Version: 6.00 Build 0)  -->
<svg version="1.1" id="Layer_1" xmlns="http://www.w3.org/2000/svg" xmlns:xlink="http://www.w3.org/1999/xlink" x="0px" y="0px"
	 viewBox="0 0 500 500" style="enable-background:new 0 0 500 500;" xml:space="preserve">
<style type="text/css">
	.st0{fill:#219638;}
	.st1{fill:#7DB728;}
	.st2{fill:#B1117F;}
</style>
<path class="st0" d="M94.7,345c2.4,14,12.7,22.4,26.6,22.4s24.1-8.3,26.6-22.4c1.6-9.5-4.2-18.6-11.5-19.2c-7.3-0.7-7.7,4.6-15,4.6
	c-0.3,0-0.4,0-0.7,0c-0.9-8.4-1.5-22,2.4-34.7c0.1-0.1,0.3-0.3,0.4-0.5c-0.1,1.2,0,2.4,0.1,3.7c1.5,9.3,11,14.8,11,14.8
	s7.5-8,6-17.3c-1.4-8.4-9.1-13.5-10.7-14.5c2.8-3.9,6.2-7.5,10.7-10.3c-1.2,22.4,14.9,41.3,24.8,50.8c-3.7,1.2-6.8,0-10.7,4.1
	c-5.1,5.3-3.8,16,3.7,22.1c11,9.1,24.1,8.7,34.7-0.3c10.6-8.9,13-22,5.8-34.3c-4.9-8.3-15.2-11.4-21.3-7c-6.1,4.2-3,8.5-8.4,13.3
	c-0.1,0.1-0.4,0.3-0.5,0.4c-6.8-6.4-17.2-17.8-22.1-31.7c0.8,1.1,1.6,2,2.7,2.8c7.2,6.1,17.9,3.9,17.9,3.9s0.4-11-6.8-17.1
	c-5.6-4.7-13.1-4.5-16.4-4.2c0-4.7,0.7-9.6,2.4-14.5c0.3-0.9-0.1-1.9-1.1-2.2c-0.9-0.3-1.9,0.1-2.2,1.1c-1.1,2.8-1.8,5.7-2.2,8.4
	c-8.9,5.3-14.9,12.6-18.6,20.7c-2.2,0-5,0.3-7.5,2.2c-4.3,3.4-4.5,9.8-4.5,9.8s4.1,1.1,8-0.4c-2.7,11.4-2.3,22.8-1.5,30.5
	c-3.5-1.5-5.1-4.3-10.7-3.8C98.9,326.5,93.1,335.4,94.7,345z M117.1,293.3l-4.9,5c0,0,0-3.5,2.4-6c0.7-0.7,1.4-1.1,2-1.5
	C116.4,292.2,117.1,293.3,117.1,293.3z M154.5,278.2c0,0,3.9,1.8,6,3.8c4.3,4.2,4.3,10.3,4.3,10.3s-8.5-9.1-11.9-12.6
	C149.3,276.1,154.5,278.2,154.5,278.2z M187.8,309.1C187.9,309.1,187.9,309.1,187.8,309.1C187.9,309.1,187.9,309.1,187.8,309.1
	c6.2,2.2,7.5,8.1,5.8,9.5c-1.1,0.9-1.6-2.8-7.5-4.7c-5.7-1.9-8.5,0.7-8.8-0.8C177,311,181.6,306.9,187.8,309.1z M132.1,330.5
	c0.9-1.8,6.9-1.9,10.4,3.8c3.4,5.8,0.4,11-1.6,11c-1.4,0,0.5-3.3-2.6-8.4C135.2,331.7,131.4,331.7,132.1,330.5z"/>
<path class="st0" d="M348.1,132.6c-47,35-110.4,111.5-111.1,112.2c0.9,1.2,5.4,5.6,14.4,11.8c0,0,39.2-30.8,57.9-45.7
	c14.1-27,32.2-59.2,42-76.6C352,132.6,349.6,130.9,348.1,132.6z"/>
<path class="st1" d="M296.5,300.4c-5.6-0.8-12.6-2-19.9-3.4c0,0,8.7,0.7,17.3-0.3c6.5-1.8,11.8-6.4,13.7-12.5
	c1.4-4.5,3.4-9.8,6-15.3c5.6-12.1,66-75.1,90.2-100c1.4-1.5-0.5-3.7-2.4-2.6c-60.3,24.3-122,68.6-150,90.1
	c-8.3-2.2-54.6-0.7-39.4,45.5c0.1,0.3,0.4,1.2,0.4,1.4c0.5,1.4,0.8,1.8,0.9,1.9c5,7.6,10.6,16,17.1,25.1
	c44.2,61.1,174.4,22,174.4,22S340.8,362.1,296.5,300.4z"/>
<path class="st2" d="M236.2,243.8c-28.3-32.5-55.7-17.6-62.7,7.7c-0.4,1.4-0.9,2-1.9,3c0.9-0.4,6.2-2.7,7.9-3.7l1.9-1.2
	c0.4-0.3,0.8-0.5,1.2-0.9c0.1-0.1,0.3-0.3,0.4-0.4c1.4-1.5,2.2-3.3,3.3-5.1V243c0.5-1.4,2.2-2.6,4.3-2.8c2.7-0.3,5.1,0.9,5.3,2.8
	c0.3,1.8-1.4,3.4-3.7,3.9l-8.3,3.8l-6.1,3c-3.7,1.9-7.7,3.5-11.7,4.6c-3.1,0.8-21.7,5.1-25.9,6.1c-17.3,4.1-35.9,8.1-35.9,8.1
	s18.7-2.7,35.2-5c9.3-1.4,18.7-2.7,27.5-4.1c17.6-2.6,27.8,14.8,46.3,42c0-0.1-0.8-1.2-1.5-3.4c-15.2-46.2,31.2-47.7,39.4-45.5
	C247.5,254,239.6,247.7,236.2,243.8z"/>
<path class="st2" d="M94.7,345c2.4,14,12.7,22.4,26.6,22.4s24.1-8.3,26.6-22.4c1.6-9.5-4.2-18.6-11.5-19.2c-7.3-0.7-7.7,4.6-15,4.6
	c-7.2,0-7.6-5.3-15-4.6C98.9,326.5,93.1,335.4,94.7,345z M132.1,330.5c0.9-1.8,6.9-1.9,10.4,3.8c3.4,5.8,0.4,11-1.6,11
	c-1.4,0,0.5-3.3-2.6-8.4S131.4,331.7,132.1,330.5z"/>
<path class="st2" d="M154.7,326.2c-5.1,5.3-3.8,16,3.7,22.1c11,9.1,24.1,8.7,34.7-0.3c10.6-8.9,13-22,5.8-34.3
	c-4.9-8.3-15.2-11.4-21.3-7c-6.1,4.2-3,8.5-8.4,13.3C163.7,324.6,159.9,320.9,154.7,326.2z M187.8,309.1
	C187.9,309.1,187.9,309.1,187.8,309.1C187.9,309.1,187.9,309.1,187.8,309.1c6.2,2.2,7.5,8.1,5.8,9.5c-1.1,0.9-1.6-2.8-7.5-4.7
	c-5.7-1.9-8.5,0.7-8.8-0.8C177,311,181.6,306.9,187.8,309.1z"/>
</svg>
